<svg id="Layer_1" data-name="Layer 1" xmlns="http://www.w3.org/2000/svg" viewBox="0 0 399.95 345.75"><defs><style>.cls-1{fill:#fff;}</style></defs><path class="cls-1" d="M84.9,25S70.66,71.59,71.18,76.87s.85,8.24,3,11.27-.74,1.7,17.23,14.94c0,0,2.46,1.26-4.4,5.21-8.36,4.81-13.87,18.15-14.63,19.94-1,2.29-7.55-1.71-7.55-1.71s-24.26-12-21.5-29.9,4.76-21.69,23-47.61S84.9,25,84.9,25Z" transform="translate(0 0)"/><path class="cls-1" d="M188.21,345.62h0S188.55,345.9,188.21,345.62Z" transform="translate(0 0)"/><path class="cls-1" d="M351.06,162.23s41.45-51.47,43.48-85.77c.17-2.81-70,19.91-70,19.91s37.9-28.43,34-28.8c-94.65-9.06-116.69,5.75-116.69,5.75S258.25,53,253.79,53.71C211.59,60,175.61,84,175.61,84S191,94,191.81,97.22s-61.16-33.75-62.36-35.1-4-.5-2.47-21.71S129.1,2.05,128.78.8s.65-5.19-15.68,29c0,0-25.64,36.87-22.29,47,0,0-1.92,7.11,10.75,17.28S130.45,115,130.45,115a29.78,29.78,0,0,1-13.62-5c-6.56-4.54-18.19-.46-24.6,3.24C87.71,115.89,76,127.8,76.89,140.74l-.83.23s-22.2-.13-54.32,19.18c0,0-24.65,12-21.45,29.34,0,0,1.89,17,7.8,21.17L16,204.05l37.32,9,30.12-29.76,26.7-1.25L124,161.87l-13.53,27.37-27.18-.54L55.79,222.9,15.65,212.46l-4,5.58s-.07,20.22-1.25,25.72-4.15,18.52,0,21S20.66,265,66,255.53l26.51-6.2s28.9,11.86,41,26,35.48,54.51,46.1,63.21l8.58,7.05a315.81,315.81,0,0,1,48.36-50.82c21.12-17.5,67.43-45.86,93.29-61.74A169.76,169.76,0,0,0,362,207.46c13.11-13.31,31.38-32.3,37.7-41C403.8,160.86,351.06,162.23,351.06,162.23ZM106.83,142.38a10.06,10.06,0,1,1,10-10.06A10.05,10.05,0,0,1,106.83,142.38Zm85.6,52.91c-5.75,30.3-28.8,30.09-28.8,30.09,42.91-22,20.64-70,20.64-70S198.18,165,192.43,195.29Z" transform="translate(0 0)"/></svg>