<?xml version="1.0" encoding="UTF-8" standalone="no"?>
<svg
   viewBox="4.4086 7.188 745.4835 658.353"
   width="745.4835px"
   height="658.353px"
   version="1.1"
   id="svg1"
   sodipodi:docname="logo.svg"
   inkscape:version="1.4 (86a8ad7, 2024-10-11)"
   xmlns:inkscape="http://www.inkscape.org/namespaces/inkscape"
   xmlns:sodipodi="http://sodipodi.sourceforge.net/DTD/sodipodi-0.dtd"
   xmlns="http://www.w3.org/2000/svg"
   xmlns:svg="http://www.w3.org/2000/svg">
  <defs
     id="defs1" />
  <sodipodi:namedview
     id="namedview1"
     pagecolor="#505050"
     bordercolor="#eeeeee"
     borderopacity="1"
     inkscape:showpageshadow="0"
     inkscape:pageopacity="0"
     inkscape:pagecheckerboard="0"
     inkscape:deskcolor="#505050"
     inkscape:zoom="1.2257861"
     inkscape:cx="372.41407"
     inkscape:cy="329.17651"
     inkscape:window-width="1920"
     inkscape:window-height="1009"
     inkscape:window-x="1912"
     inkscape:window-y="-8"
     inkscape:window-maximized="1"
     inkscape:current-layer="svg1" />
  <path
     style="fill:#ffffff"
     d="M 87.412 267.265 C 96.344 236.655 116.249 225.098 141.005 214.895 C 165.762 204.694 189.702 200.885 189.702 200.885 C 213.211 197.808 290.735 122.083 285.46 85.539 C 280.186 48.995 217.373 17.827 197.318 7.188 C 209.833 9.908 234.751 7.682 289.07 22.027 C 332.214 33.422 369.535 45.66 379.046 98.596 C 381.857 114.242 379.367 130.838 374.684 146.091 C 388.577 126.272 407.907 106.394 433.557 95.852 C 433.557 95.852 417.77 124.124 403.952 152.112 C 422.032 126.493 462.443 110.807 505.178 134.182 C 483.266 142.469 473.158 154.507 473.158 154.507 C 534.233 139.526 531.339 166.657 603.212 166.771 C 595.245 183.656 564.439 191.707 549.89 193.269 C 554.448 204.323 653.101 248.234 643.494 250.931 C 633.886 253.628 625.555 253.145 608.996 260.002 C 687.162 289.498 736.258 379.46 743.988 431.976 C 736.662 425.067 711.826 407.719 685.914 401.111 C 742.573 435.174 755.462 501.734 747.94 502.313 C 673.667 493.233 563.861 530.253 521.597 543.664 C 450.554 566.209 215.818 665.541 215.818 665.541 C 221.804 662.276 305.411 597.788 317.019 583.926 C 328.626 570.064 315.397 555.762 305.049 554.546 C 311.035 549.104 346.663 521.385 358.74 522.248 C 370.818 523.111 373.654 543.176 374.349 557.774 C 392.076 554.386 421.552 527.535 425.418 492.059 C 425.916 467.277 404.783 443.927 353.953 394.691 C 388.83 406.282 408.658 429.022 423.661 447.904 C 424.843 416.405 439.209 359.341 415.811 326.189 C 380.668 276.397 306.869 289.277 302.447 289.04 C 352.45 270.037 387.151 276.513 396.457 281.411 C 384.818 197.864 296.267 213.968 297.775 217.563 C 289.69 236.233 282.974 241.022 269.138 250.942 C 275.172 252.032 300.554 235.113 303.613 225.174 C 343.877 225.174 360.002 237.067 368.981 246.045 C 377.959 255.022 376.87 264 376.87 264 C 333.886 261.823 302.6 272.433 282.061 283.587 C 261.522 294.742 251.727 306.44 251.727 306.44 C 291.497 287.658 382.322 298.15 407.833 339.358 C 426.457 371.333 415.652 425.746 415.652 425.746 C 396.568 402.177 339.493 363.46 311.579 377.171 C 359.068 396.905 416.65 472.042 417.524 492.56 C 417.119 514.967 392.539 542.431 381.966 548.044 C 382.422 531.743 365.747 506.773 349.664 515.371 C 333.581 523.97 312.122 537.95 289.542 554.409 C 266.962 570.868 247.375 586.103 247.375 586.103 C 247.375 586.103 237.582 591.272 222.618 594.671 C 207.656 598.072 187.525 599.704 166.849 592.632 C 146.173 585.559 134.476 571.684 127.947 559.578 C 121.418 547.473 120.058 537.135 120.058 537.135 C 151.071 555.09 172.562 558.353 186.301 557.131 C 200.038 555.906 206.024 550.193 206.024 550.193 L 200.584 517.548 L 229.964 519.724 L 227.433 489.266 L 253.232 486.697 C 255.815 487.399 285.41 468.857 239.758 423.964 C 194.106 379.071 163.65 372.781 148.167 375.305 L 147.652 395.307 L 122.234 394.582 L 118.965 419.636 L 88.5 419.611 L 82.331 446.471 L 56.943 443.551 C 56.736 454.123 61.296 462.049 71.09 475.108 C 80.883 488.166 91.765 500.137 91.765 500.137 C 91.765 500.137 67.281 488.439 43.885 471.028 C 20.489 453.617 3.849 440.569 4.423 412.048 C 4.997 383.527 14.505 369.826 23.21 358.536 C 31.916 347.245 46.117 331.535 71.869 321.02 C 97.622 310.506 116.792 306.44 116.792 306.44 C 107.317 304.433 78.481 297.875 87.412 267.265 Z M 234.595 158.696 C 230.586 169.63 191.955 195.138 191.955 195.138 C 160.614 200.969 146.403 207.53 146.403 207.53 C 182.117 167.443 179.93 139.745 179.93 139.745 C 177.743 93.464 127.817 52.282 127.817 52.282 C 238.969 81.801 238.603 147.763 234.595 158.696 Z M 36.698 413.79 C 36.705 413.795 36.709 413.799 36.709 413.799 C 36.723 413.799 36.72 413.795 36.698 413.79 Z M 16.3 407.239 C 8.646 411.613 25.775 443.681 25.775 443.681 C 25.775 443.681 17.259 418.499 21.631 415.219 C 25.829 412.07 36.201 413.658 36.698 413.79 C 36.299 413.449 23.831 402.936 16.3 407.239 Z M 124.603 303.609 C 124.603 303.609 132.423 295.002 138.087 299.604 C 143.752 304.206 155.049 310.336 171.182 305.563 C 187.939 298.588 200.904 281.678 195.356 262.228 C 204.314 249.503 206.722 223.814 199.245 216.642 C 199.245 216.642 206.708 240.35 183.743 261.2 C 183.743 261.2 135.578 289.221 124.603 303.609 Z"
     id="path1" />
</svg>
