<?xml version="1.0" encoding="utf-8"?>
<!-- Generator: Adobe Illustrator 26.0.3, SVG Export Plug-In . SVG Version: 6.00 Build 0)  -->
<svg version="1.1" id="Layer_1" xmlns="http://www.w3.org/2000/svg" xmlns:xlink="http://www.w3.org/1999/xlink" x="0px" y="0px"
	 viewBox="0 0 438.3 304.9" style="enable-background:new 0 0 438.3 304.9;" xml:space="preserve">
<style type="text/css">
	.st0{fill-rule:evenodd;clip-rule:evenodd;fill:#2F2822;}
	.st1{fill:#2F2822;}
</style>
<g transform="matrix(4.352083206176758, 0, 0, 4.352083206176758, 45.09654235839844, -13.320955276489258)">
	<path class="st0" d="M17.5,25.1l5,4l5,4l-1,6l-10,7h-10l4-3l7-12V25.1z M42.5,33.1l5,1l11,5l-3,6h-9l3-2L42.5,33.1z M0.5,16.3l5-3
		l1-3l9-7v3h8l7-3l9,2c9.3-2,15.7-2.7,19-2c3.3,0.7,6.7,4,10,9.9l11,32.9h-11c2.4-1.8,3.4-2.8,3-3c-0.7-0.3-8.7-3.8-16-8
		c-5.1-2.9-10.5-4.6-16-5v10l-1,6h-10l3-3v-7l-2-4l-12-9.9l-8-1l-7-2L0.5,16.3z"/>
</g>
<path class="st1" d="M401.6,207.8H273l-7.9-5.9l-7.2,5.4l-11.3-8.5l-10.9,8.2l-16.6-12.5l-16.8,12.7l-11.2-8.4l-10.9,8.2l-6.7-5
	l-7.9,5.9H36.9v3h128.6l7.9,5.9l6.7-5l11,8.1l11.2-8.4l16.8,12.7l16.6-12.5l10.9,8.2l11.3-8.5l7.2,5.4l7.9-5.9h128.6V207.8z"/>
<path class="st1" d="M161.2,294.3L161.2,294.3c-0.6,0-1,0.2-1.4,0.5c-0.3,0.3-0.5,0.7-0.5,1.2l0,0v0.6c0,1.1,0.5,1.7,1.5,1.7l0,0
	c0.8,0,1.6-0.2,2.4-0.6c0.8-0.4,1.4-0.9,1.7-1.5l0,0h0.6v5.1h-0.6c-0.3-0.6-0.8-1.1-1.6-1.4s-1.6-0.5-2.4-0.5l0,0
	c-0.5,0-0.9,0.1-1.1,0.4c-0.2,0.3-0.3,0.6-0.3,1.1l0,0v0.6c0,0.9,0.1,1.5,0.3,1.8c0.2,0.4,0.6,0.6,1.2,0.6l0,0h0.4
	c0.6,0,1.1,0,1.5,0s0.9-0.1,1.5-0.2s1.2-0.3,1.6-0.4c0.5-0.2,0.9-0.5,1.5-0.8c0.5-0.4,1-0.8,1.4-1.3l0,0h0.5v3.5h-20.2V304h2
	c1.2,0,1.8-0.6,1.8-1.8l0,0v-5.8c0-0.5-0.2-0.9-0.5-1.3c-0.4-0.4-0.8-0.5-1.3-0.5l0,0h-2v-0.7h19.9v3.8h-0.5
	c-0.6-0.9-1.6-1.6-2.8-2.2C164.6,294.6,163,294.3,161.2,294.3z M153.9,303.7h1.1v-9.4h-1.1V303.7z M174.8,300.8
	c-0.8-0.3-1.5-0.7-2-1.1c-0.5-0.5-0.8-1-0.8-1.5c0-0.6,0.1-1,0.3-1.4s0.5-0.7,0.9-0.9c0.4-0.2,0.8-0.4,1.1-0.6
	c0.4-0.1,0.9-0.2,1.5-0.3l0,0c0.9-0.1,1.9-0.1,2.8-0.1l0,0c2.3,0,4.7,0.3,7.3,1l0,0c0-0.1,0.1-0.3,0.3-0.7l0,0h0.8v3.2h-0.9
	c-0.8-0.8-2-1.4-3.5-2c-1.5-0.5-2.9-0.8-4-0.8s-1.7,0.3-1.7,0.8l0,0c0,0.5,0.9,0.9,2.7,1.2l0,0c1.8,0.3,3.5,0.6,5,1.1l0,0
	c0.8,0.2,1.4,0.6,1.9,1.1s0.8,1.1,0.8,1.8l0,0c0,2.2-2.3,3.3-6.8,3.3l0,0c-2.4,0-4.9-0.4-7.4-1.1l0,0l-0.4,0.8h-0.8v-4.1h0.8
	c0.1,0.3,0.5,0.7,1,1.2c0.5,0.4,1.1,0.8,1.8,1.2s1.5,0.7,2.4,0.9c0.9,0.3,1.8,0.4,2.7,0.4l0,0c1.5,0,2.3-0.2,2.3-0.7l0,0
	c0-0.4-0.9-0.9-2.8-1.3l0,0C178.2,301.8,176.5,301.3,174.8,300.8L174.8,300.8z M173,297.9L173,297.9c0,0.7,0.6,1.4,1.8,1.9
	s3.1,1.1,5.8,1.7l0,0c1.2,0.3,2.1,0.5,2.6,0.7s1,0.5,1.3,0.9l0,0l0,0l0,0l0,0c0-0.6-0.2-1-0.6-1.3l0,0c-0.5-0.3-0.9-0.6-1.4-0.7
	s-0.9-0.2-1.2-0.3c-0.3-0.1-0.7-0.2-1.2-0.3c-0.5-0.1-0.9-0.2-1.2-0.3l0,0c-3.7-0.8-5.5-1.9-5.6-3.3l0,0h-0.1
	C173.1,297.3,173,297.6,173,297.9z M200.2,295.8L200.2,295.8c-0.3,0-0.5,0.2-0.5,0.7l0,0v5.7c0,1,0.5,1.5,1.5,1.5l0,0h1.8v0.7h-12.2
	v-0.7h1.8c1,0,1.5-0.5,1.5-1.5l0,0v-5.7c0-0.4-0.2-0.7-0.5-0.7l0,0c-0.3,0-0.7,0.3-1.2,0.9c-0.6,0.6-1,1.1-1.5,1.7l0,0l-0.6,0.9
	h-0.6l0.2-4.1h13.9l0.2,4.1h-0.6c-0.1-0.1-0.2-0.2-0.3-0.4c-0.1-0.2-0.3-0.4-0.6-0.8s-0.6-0.7-0.9-1c-0.3-0.3-0.5-0.6-0.8-0.8
	C200.6,295.9,200.4,295.8,200.2,295.8z M195.1,303.7h0.8v-7.9h-0.8V303.7z M212.3,301.2c0.7,0.4,1,0.9,1,1.5s-0.3,1.1-1,1.5
	s-1.5,0.6-2.4,0.6s-1.8-0.2-2.4-0.6c-0.7-0.4-1-0.9-1-1.5s0.3-1.1,1-1.5s1.5-0.6,2.4-0.6S211.6,300.8,212.3,301.2z M208.5,304.1
	c-0.4-0.4-0.6-0.9-0.6-1.4s0.2-1,0.6-1.4l0,0l-0.1-0.1c-0.4,0.2-0.7,0.4-1,0.6c-0.3,0.3-0.4,0.5-0.4,0.8s0.1,0.6,0.4,0.8
	C207.7,303.8,208.1,304,208.5,304.1L208.5,304.1L208.5,304.1z M237.6,301.9v-1.4h0.6v3.8h-15v-1.1c1.5-0.4,2.8-1,4-1.5
	c1.2-0.6,2.1-1.1,2.7-1.6c0.7-0.5,1.2-1,1.7-1.7c0.5-0.6,0.7-1.2,0.7-1.8c0-0.6-0.1-1-0.2-1.4s-0.3-0.6-0.5-0.8
	c-0.2-0.2-0.4-0.3-0.7-0.4l0,0c-0.4-0.2-0.7-0.2-1.1-0.2l0,0c-1.3,0-2.4,0.5-3.5,1.4s-1.8,2-2,3.1l0,0h-0.6v-4.5h0.6v0.9
	c1.7-1,3.8-1.5,6.2-1.5l0,0c1.6,0,3.2,0.2,4.8,0.6l0,0c0.8,0.2,1.5,0.6,2.1,1c0.5,0.5,0.8,1,0.8,1.6s-0.3,1.3-1,1.9
	s-1.5,1.2-2.5,1.7s-2.2,1-3.6,1.5l0,0c-2.2,0.8-4.6,1.5-7.2,2.1l0,0v0.1C229.1,303.7,233.7,303.1,237.6,301.9L237.6,301.9z
	 M232.3,294.2L232.3,294.2c0.5,0.6,0.8,1.4,0.8,2.4l0,0c0,0.7-0.2,1.4-0.7,2c-0.4,0.6-0.9,1.1-1.5,1.6l0,0v0.1
	c0.3-0.1,0.6-0.2,1-0.4c0.4-0.2,0.7-0.4,0.9-0.7c0.3-0.2,0.5-0.6,0.7-1s0.3-0.9,0.3-1.3s-0.1-0.7-0.2-1s-0.3-0.5-0.4-0.7l0,0
	c-0.3-0.4-0.6-0.7-0.9-0.8l0,0L232.3,294.2z M256,299L256,299c0,1.1-0.4,2-1.1,2.9s-1.7,1.6-3,2.1s-2.6,0.8-4.1,0.8
	s-2.9-0.3-4.1-0.8c-1.3-0.5-2.3-1.2-3-2.1s-1.1-1.9-1.1-2.9l0,0c0-1.6,0.8-3,2.3-4.1s3.5-1.7,6-1.7s4.4,0.6,6,1.7
	C255.3,296,256,297.3,256,299z M249.9,295.1c-0.4-0.8-1.1-1.2-2.1-1.2s-1.7,0.4-2.1,1.2c-0.4,0.8-0.6,2.1-0.6,3.8
	c0,1.7,0.2,3,0.7,3.9s1.1,1.3,1.9,1.3s1.5-0.4,1.9-1.3c0.5-0.9,0.7-2.2,0.7-3.9C250.5,297.2,250.3,295.9,249.9,295.1z M242,301.7
	c-0.5-0.8-0.8-1.7-0.8-2.7s0.3-1.9,0.8-2.7c0.5-0.8,1.3-1.5,2.2-2l0,0v-0.1c-1.2,0.5-2.1,1.1-2.8,2c-0.7,0.8-1.1,1.8-1.1,2.8
	s0.4,2,1.1,2.8s1.6,1.5,2.8,2l0,0v-0.1C243.3,303.2,242.6,302.5,242,301.7z M250.7,303.6c0.5-0.5,0.9-1.2,1.2-2
	c0.3-0.8,0.5-1.7,0.5-2.6s-0.2-1.7-0.5-2.6c-0.3-0.8-0.7-1.5-1.2-2l0,0l-0.1,0.1c0.5,1.4,0.8,2.9,0.8,4.5
	C251.5,300.6,251.2,302.2,250.7,303.6L250.7,303.6L250.7,303.6z M271.7,301.9v-1.4h0.6v3.8h-15v-1.1c1.5-0.4,2.8-1,4-1.5
	c1.2-0.6,2.1-1.1,2.7-1.6c0.7-0.5,1.2-1,1.7-1.7c0.5-0.6,0.7-1.2,0.7-1.8c0-0.6-0.1-1-0.2-1.4s-0.3-0.6-0.5-0.8
	c-0.2-0.2-0.4-0.3-0.7-0.4l0,0c-0.4-0.2-0.7-0.2-1.1-0.2l0,0c-1.3,0-2.4,0.5-3.5,1.4s-1.8,2-2,3.1l0,0h-0.6v-4.5h0.6v0.9
	c1.7-1,3.8-1.5,6.2-1.5l0,0c1.6,0,3.2,0.2,4.8,0.6l0,0c0.8,0.2,1.5,0.6,2.1,1c0.5,0.5,0.8,1,0.8,1.6s-0.3,1.3-1,1.9
	s-1.5,1.2-2.5,1.7s-2.2,1-3.6,1.5l0,0c-2.2,0.8-4.6,1.5-7.2,2.1l0,0v0.1C263.3,303.7,267.8,303.1,271.7,301.9L271.7,301.9z
	 M266.5,294.2L266.5,294.2c0.5,0.6,0.8,1.4,0.8,2.4l0,0c0,0.7-0.2,1.4-0.7,2c-0.4,0.6-0.9,1.1-1.5,1.6l0,0v0.1
	c0.3-0.1,0.6-0.2,1-0.4c0.4-0.2,0.7-0.4,0.9-0.7c0.3-0.2,0.5-0.6,0.7-1s0.3-0.9,0.3-1.3s-0.1-0.7-0.2-1s-0.3-0.5-0.4-0.7l0,0
	c-0.3-0.4-0.6-0.7-0.9-0.8l0,0L266.5,294.2z M288.6,301.9v-1.4h0.6v3.8h-15v-1.1c1.5-0.4,2.8-1,4-1.5c1.2-0.6,2.1-1.1,2.7-1.6
	c0.7-0.5,1.2-1,1.7-1.7c0.5-0.6,0.7-1.2,0.7-1.8c0-0.6-0.1-1-0.2-1.4s-0.3-0.6-0.5-0.8c-0.2-0.2-0.4-0.3-0.7-0.4l0,0
	c-0.4-0.2-0.7-0.2-1.1-0.2l0,0c-1.3,0-2.4,0.5-3.5,1.4s-1.8,2-2,3.1l0,0h-0.6v-4.5h0.6v0.9c1.7-1,3.8-1.5,6.2-1.5l0,0
	c1.6,0,3.2,0.2,4.8,0.6l0,0c0.8,0.2,1.5,0.6,2.1,1c0.5,0.5,0.8,1,0.8,1.6s-0.3,1.3-1,1.9s-1.5,1.2-2.5,1.7s-2.2,1-3.6,1.5l0,0
	c-2.2,0.8-4.6,1.5-7.2,2.1l0,0v0.1C280.1,303.7,284.7,303.1,288.6,301.9L288.6,301.9z M283.3,294.2L283.3,294.2
	c0.5,0.6,0.8,1.4,0.8,2.4l0,0c0,0.7-0.2,1.4-0.7,2c-0.4,0.6-0.9,1.1-1.5,1.6l0,0v0.1c0.3-0.1,0.6-0.2,1-0.4c0.4-0.2,0.7-0.4,0.9-0.7
	c0.3-0.2,0.5-0.6,0.7-1s0.3-0.9,0.3-1.3s-0.1-0.7-0.2-1s-0.3-0.5-0.4-0.7l0,0c-0.3-0.4-0.6-0.7-0.9-0.8l0,0L283.3,294.2z"/>
<path class="st1" d="M197.8,229.7c0,3.1,2.5,5.6,5.6,5.6s5.6-2.5,5.6-5.6s-2.5-5.6-5.6-5.6S197.8,226.7,197.8,229.7"/>
<path class="st1" d="M230.2,229.7c0,3.1,2.5,5.6,5.6,5.6s5.6-2.5,5.6-5.6s-2.5-5.6-5.6-5.6C232.6,224.2,230.2,226.7,230.2,229.7"/>
<path class="st1" d="M29.8,260.8c0.5,0.4,0.9,1,1.3,1.7c0.3,0.7,0.5,1.6,0.5,2.6s-0.2,1.9-0.7,2.8c-0.5,0.8-1.1,1.5-1.9,1.8l0,0
	c-1.5,0.8-3,1.2-4.6,1.2l0,0H0v-1.7h2.9c1.6,0,2.4-1.2,2.4-3.5l0,0v-11.5c0-0.9-0.2-1.8-0.7-2.5s-1.1-1.1-1.7-1.1l0,0H0v-1.7h22
	c2.9,0,4.8,0.3,5.8,0.8l0,0c1.1,0.6,1.8,1.3,2.1,2.3l0,0c0.2,0.6,0.3,1.3,0.3,2.2c0,0.9-0.2,1.7-0.6,2.5s-0.8,1.3-1.2,1.6
	c-0.4,0.3-0.8,0.6-1.2,0.8l0,0v0.2C28,259.6,28.9,260,29.8,260.8L29.8,260.8z M14.6,253.9L14.6,253.9v4.7h3.6c0.8,0,1.5-0.3,2.1-1
	s0.9-1.7,0.9-2.9s-0.3-2.3-1-2.9c-0.7-0.7-1.5-1-2.6-1c-1,0-1.8,0.3-2.3,0.9C14.8,252.2,14.6,253,14.6,253.9z M7.1,269.3h1.4v-18.5
	H7.1V269.3z M16.5,269.3L16.5,269.3h2.1c0.9,0,1.7-0.4,2.4-1.1s1-1.9,1-3.4c0-1.6-0.3-2.7-1-3.5s-1.6-1.1-2.7-1.1l0,0h-3.7v5.8
	C14.6,268.2,15.2,269.3,16.5,269.3z M24,257.1c0.4-0.7,0.7-1.5,0.7-2.2s-0.2-1.5-0.7-2.2c-0.4-0.7-1-1.3-1.6-1.6l0,0l-0.1,0.1
	c0.6,1.2,0.9,2.5,0.9,3.7c0,1.3-0.3,2.5-0.9,3.7l0,0l0.1,0.2C23.1,258.4,23.6,257.9,24,257.1z M24.9,267.5c0.5-0.9,0.7-1.8,0.7-2.7
	c0-1-0.2-1.9-0.7-2.7c-0.5-0.9-1.1-1.5-1.9-1.9l0,0l-0.1,0.2c0.8,1.3,1.2,2.8,1.2,4.5s-0.4,3.2-1.2,4.5l0,0l0.1,0.2
	C23.8,269,24.4,268.3,24.9,267.5z M49,254.3L49,254.3v11.5c0,2.3,0.8,3.5,2.5,3.5l0,0c1.3,0,2.7-0.5,4.2-1.5l0,0
	c1.8-1.3,3.5-3.5,5.1-6.7l0,0h0.8v9.8H34.4v-1.7h2.9c1.6,0,2.4-1.2,2.4-3.5l0,0v-11.5c0-0.9-0.2-1.8-0.7-2.5s-1.1-1.1-1.7-1.1l0,0
	h-2.9v-1.7h21v1.7h-4c-0.7,0-1.3,0.4-1.7,1.1C49.2,252.5,49,253.3,49,254.3z M41.4,250.8v18.5h1.4v-18.5H41.4z M92.1,269.3h2.7v1.7
	H77.2v-1.7H79c0.4,0,0.7-0.1,0.9-0.3c0.2-0.2,0.4-0.6,0.4-1.1s-0.2-1.1-0.6-1.9l0,0l-0.8-1.5H68.7c-0.4,1-0.6,1.9-0.6,2.6
	s0.2,1.3,0.5,1.7c0.3,0.4,0.7,0.6,1.2,0.6l0,0H72v1.7H61.6v-1.7c0.9,0,1.7-0.2,2.4-0.7c0.7-0.4,1.2-0.9,1.5-1.3l0,0l0.4-0.7
	l6.9-12.7l-0.8-1.4c-0.3-0.4-0.5-0.8-0.6-1l0,0c-0.4-0.5-1.2-0.7-2.2-0.7l0,0h-1.9v-1.7h13.4L92.1,269.3z M75.2,250.8h-1.7
	l10.4,18.5h1.6L75.2,250.8z M77.9,262.8l-4.3-7.7l-4.2,7.7H77.9z M110.1,271.8L110.1,271.8c-4.2,0-7.7-0.9-10.5-2.7l0,0
	c-1.4-0.9-2.5-2.2-3.3-3.8c-0.8-1.6-1.2-3.3-1.2-5.4c0-2,0.4-3.8,1.3-5.4c0.9-1.6,2-2.8,3.4-3.7l0,0c2.8-1.8,6-2.7,9.5-2.7l0,0
	c2.4,0,5.1,0.8,8.3,2.4l0,0v-1.6h1.3v8.2h-1.2c-0.8-1.6-2-3.2-3.6-4.8c-1.6-1.7-3.2-2.5-4.8-2.5l0,0c-2.3,0-3.4,1.6-3.4,4.8l0,0v9.2
	c0,2.2,0.3,3.9,1,4.8c0.7,1,1.7,1.5,3.2,1.5s2.8-0.2,3.9-0.6c1.2-0.4,2.1-0.9,2.7-1.4s1.2-1,1.7-1.4s0.8-0.6,1-0.6l0,0
	c0.4,0,0.6,0.3,0.6,0.8l0,0c0,0.7-0.8,1.6-2.5,2.8l0,0C115.4,271.1,113,271.8,110.1,271.8z M102.3,269.2c-1.3-1-2.3-2.3-3.1-3.9
	S98,262,98,260c0-1.9,0.4-3.7,1.2-5.3c0.8-1.6,1.8-2.9,3.1-3.9l0,0l-0.1-0.2c-1.7,1-3,2.3-4.1,3.9c-1.1,1.7-1.6,3.5-1.6,5.4
	c0,2,0.5,3.8,1.6,5.4s2.5,2.9,4.1,3.9l0,0H102.3z M129.3,269.3h1.4v-18.5h-1.4V269.3z M146.4,269.3h1.9l-5.3-9.1h-1.9L146.4,269.3z
	 M141,269.3v1.7h-18.8v-1.7h2.9c1.6,0,2.4-1.2,2.4-3.5l0,0v-11.6c0-0.9-0.2-1.8-0.7-2.5s-1.1-1-1.7-1l0,0h-2.9V249h19.7v1.7h-2.7
	c-0.8,0-1.4,0.3-1.8,0.9c-0.5,0.6-0.7,1.3-0.7,2.3l0,0v3.5c0,1.2,0.4,1.8,1.3,1.8l0,0h0.5c0.5,0,1.2-0.3,2.1-0.8
	c0.8-0.5,1.5-0.9,1.8-1.2l0,0c0.7-0.4,1.6-1.1,2.8-1.9l0,0c1.8-1.3,2.7-2.4,2.7-3.3l0,0c0-0.6-0.2-0.9-0.7-1.1s-1.3-0.3-2.5-0.3l0,0
	v-1.7h13.9v1.7h-2.5c-0.6,0-1.4,0.3-2.6,1l0,0c-1.7,1-3.2,2.1-4.6,3.3l0,0c-0.4,0.4-0.7,0.8-0.7,1.3c0,0.4,0.1,0.9,0.3,1.3l0,0
	l6.9,11.7h3.1v1.7h-13l-6.2-9.9h-1.8c-0.6,0-0.9,0.5-0.9,1.4l0,0v3.4c0,2.3,0.8,3.5,2.5,3.5l0,0L141,269.3L141,269.3z M203.3,260.8
	c0.5,0.4,0.9,1,1.3,1.7c0.3,0.7,0.5,1.6,0.5,2.6s-0.2,1.9-0.7,2.8c-0.5,0.8-1.1,1.5-1.9,1.8l0,0c-1.5,0.8-3,1.2-4.6,1.2l0,0h-24.3
	v-1.7h2.9c1.6,0,2.4-1.2,2.4-3.5l0,0v-11.5c0-0.9-0.2-1.8-0.7-2.5s-1.1-1.1-1.7-1.1l0,0h-2.9v-1.7h22c2.9,0,4.8,0.3,5.8,0.8l0,0
	c1.1,0.6,1.8,1.3,2.1,2.3l0,0c0.2,0.6,0.3,1.3,0.3,2.2c0,0.9-0.2,1.7-0.6,2.5c-0.4,0.8-0.8,1.3-1.2,1.6c-0.4,0.3-0.8,0.6-1.2,0.8
	l0,0v0.2C201.5,259.6,202.4,260,203.3,260.8L203.3,260.8z M188.1,253.9L188.1,253.9v4.7h3.6c0.8,0,1.5-0.3,2.1-1s0.9-1.7,0.9-2.9
	s-0.3-2.3-1-2.9c-0.7-0.7-1.5-1-2.6-1s-1.8,0.3-2.3,0.9C188.3,252.2,188.1,253,188.1,253.9z M180.6,269.3h1.4v-18.5h-1.4V269.3z
	 M189.9,269.3L189.9,269.3h2.1c0.9,0,1.7-0.4,2.4-1.1s1-1.9,1-3.4c0-1.6-0.3-2.7-1-3.5s-1.6-1.1-2.7-1.1l0,0h-3.6v5.8
	C188.1,268.2,188.7,269.3,189.9,269.3z M197.5,257.1c0.4-0.7,0.7-1.5,0.7-2.2s-0.2-1.5-0.7-2.2c-0.4-0.7-1-1.3-1.6-1.6l0,0l-0.1,0.1
	c0.6,1.2,0.9,2.5,0.9,3.7c0,1.3-0.3,2.5-0.9,3.7l0,0l0.1,0.2C196.5,258.4,197.1,257.9,197.5,257.1z M198.4,267.5
	c0.5-0.9,0.7-1.8,0.7-2.7c0-1-0.2-1.9-0.7-2.7c-0.5-0.9-1.1-1.5-1.9-1.9l0,0l-0.1,0.2c0.8,1.3,1.2,2.8,1.2,4.5s-0.4,3.2-1.2,4.5l0,0
	l0.1,0.2C197.3,269,197.9,268.3,198.4,267.5z M225,250.8L225,250.8c-0.8,0-1.4,0.3-1.8,0.9s-0.7,1.3-0.7,2.3l0,0v1.6
	c0,1.9,0.6,2.9,1.9,2.9l0,0c1,0,2.1-0.4,3.3-1.3c1.2-0.8,1.9-1.8,2.3-3l0,0h1v10.4h-1c-0.4-1.2-1.1-2.1-2.2-2.8
	c-1.1-0.7-2.2-1.1-3.3-1.1l0,0c-1.3,0-1.9,1-1.9,2.9l0,0v2.6c0,2.2,0.6,3.3,1.9,3.3l0,0h2.1c4,0,7-1.9,8.9-5.6l0,0h0.8v7.3h-28.2
	v-1.7h2.9c1.6,0,2.4-1.2,2.4-3.5l0,0v-11.6c0-0.9-0.2-1.8-0.7-2.5s-1.1-1-1.7-1l0,0h-2.9v-1.7h28v7.8h-0.8c-0.9-1.7-2.2-3.2-3.9-4.4
	C229.7,251.4,227.6,250.8,225,250.8z M214.9,250.8v18.5h1.4v-18.5H214.9z M268.4,269.3h2.7v1.7h-17.6v-1.7h1.8
	c0.4,0,0.7-0.1,0.9-0.3c0.2-0.2,0.4-0.6,0.4-1.1s-0.2-1.1-0.6-1.9l0,0l-0.8-1.5H245c-0.4,1-0.6,1.9-0.6,2.6s0.2,1.3,0.5,1.7
	c0.3,0.4,0.7,0.6,1.2,0.6l0,0h2.2v1.7H238v-1.7c0.9,0,1.7-0.2,2.4-0.7c0.7-0.4,1.2-0.9,1.5-1.3l0,0l0.4-0.7l6.9-12.7l-0.8-1.4
	c-0.3-0.4-0.5-0.8-0.6-1l0,0c-0.4-0.5-1.2-0.7-2.2-0.7l0,0h-1.9v-1.7h13.4L268.4,269.3z M251.5,250.8h-1.7l10.4,18.5h1.6
	L251.5,250.8z M254.2,262.8l-4.3-7.7l-4.2,7.7H254.2z M304.9,269.3h2.8v1.7h-13.9l-4.7-8.6c-0.5-0.9-0.9-1.3-1.2-1.3
	s-0.5,0.1-0.5,0.4c-0.1,0.3-0.1,0.9-0.1,1.8l0,0v2.5c0,2.3,0.8,3.5,2.4,3.5l0,0h1.8v1.7h-18.8v-1.7h2.9c1.6,0,2.5-1.2,2.5-3.5l0,0
	v-11.5c0-1-0.2-1.8-0.7-2.5s-1.1-1-1.7-1l0,0h-2.9v-1.7c14,0,22.4,0,25.1,0l0,0c5.5,0,8.3,2.1,8.3,6.2l0,0c0,1.2-0.3,2.2-0.8,3
	s-1.3,1.4-2.2,1.8l0,0c-1.6,0.6-3.6,1-5.9,1l0,0v0.2c0.4,0.5,1,0.9,1.8,1.4s1.8,0.8,2.8,1.1l0,0L304.9,269.3z M279.8,250.8v18.5h1.4
	v-18.5H279.8z M287.4,252.4L287.4,252.4v4.7c0,0.6,0.4,1,1.1,1.4s1.6,0.6,2.7,0.6s1.9-0.3,2.7-0.9c0.7-0.6,1.1-1.6,1.1-3.1
	s-0.4-2.5-1.2-3.2c-0.8-0.7-1.7-1.1-2.5-1.1l0,0h-2.7c-0.3,0-0.6,0.2-0.8,0.5C287.5,251.5,287.4,251.9,287.4,252.4z M292.3,261h-1.7
	l4.5,8.2h1.7C294.8,265.6,293.3,262.9,292.3,261L292.3,261z M298.1,257.8c0.4-0.8,0.6-1.7,0.6-2.5c0-0.9-0.2-1.7-0.6-2.5
	s-0.8-1.4-1.4-1.7l0,0l-0.1,0.1c0.4,1,0.6,2.4,0.6,4.2c0,1.8-0.2,3.1-0.6,4.2l0,0l0.1,0.1C297.3,259.2,297.7,258.6,298.1,257.8z
	 M336,271.8L336,271.8c-4.2,0-7.7-0.9-10.5-2.7l0,0c-1.4-0.9-2.5-2.2-3.3-3.8c-0.8-1.6-1.2-3.3-1.2-5.4c0-2,0.4-3.8,1.3-5.4
	s2-2.8,3.4-3.7l0,0c2.8-1.8,6-2.7,9.5-2.7l0,0c2.4,0,5.1,0.8,8.3,2.4l0,0v-1.6h1.3v8.2h-1.2c-0.8-1.6-2-3.2-3.6-4.8
	c-1.6-1.7-3.2-2.5-4.8-2.5l0,0c-2.3,0-3.4,1.6-3.4,4.8l0,0v9.2c0,2.2,0.3,3.9,1,4.8c0.7,1,1.7,1.5,3.2,1.5s2.8-0.2,3.9-0.6
	c1.2-0.4,2.1-0.9,2.7-1.4s1.2-1,1.7-1.4s0.8-0.6,1-0.6l0,0c0.4,0,0.6,0.3,0.6,0.8l0,0c0,0.7-0.8,1.6-2.5,2.8l0,0
	C341.4,271.1,338.9,271.8,336,271.8z M328.3,269.2c-1.3-1-2.3-2.3-3.1-3.9c-0.8-1.6-1.2-3.3-1.2-5.3c0-1.9,0.4-3.7,1.2-5.3
	c0.8-1.6,1.8-2.9,3.1-3.9l0,0l-0.1-0.2c-1.7,1-3,2.3-4.1,3.9c-1.1,1.7-1.6,3.5-1.6,5.4c0,2,0.5,3.8,1.6,5.4s2.5,2.9,4.1,3.9l0,0
	H328.3z M376.3,269.3h2.7v1.7h-17.6v-1.7h1.8c0.4,0,0.7-0.1,0.9-0.3c0.2-0.2,0.4-0.6,0.4-1.1s-0.2-1.1-0.6-1.9l0,0l-0.8-1.5h-10.2
	c-0.4,1-0.6,1.9-0.6,2.6s0.2,1.3,0.5,1.7c0.3,0.4,0.7,0.6,1.2,0.6l0,0h2.2v1.7h-10.3v-1.7c0.9,0,1.7-0.2,2.4-0.7
	c0.7-0.4,1.2-0.9,1.5-1.3l0,0l0.4-0.7l6.9-12.8l-0.8-1.4c-0.3-0.4-0.5-0.8-0.6-1l0,0c-0.4-0.5-1.2-0.7-2.2-0.7l0,0h-1.9v-1.7H365
	L376.3,269.3z M359.4,250.8h-1.7l10.4,18.5h1.6L359.4,250.8z M362.1,262.8l-4.3-7.7l-4.2,7.7H362.1z M397.1,269.3L397.1,269.3h3.2
	v1.7h-19.6v-1.7h2.9c1.6,0,2.4-1.2,2.4-3.5l0,0v-11.5c0-1-0.2-1.8-0.7-2.5s-1.1-1-1.7-1l0,0h-2.9v-1.7h26.5v6.5h-0.7
	c-0.4-0.7-0.8-1.3-1.1-1.7c-0.4-0.5-0.9-0.9-1.5-1.5l0,0c-1.3-1.1-3.4-1.6-6-1.6l0,0c-0.8,0-1.4,0.3-1.8,0.9s-0.7,1.3-0.7,2.3l0,0
	v1.6c0,1.9,0.6,2.9,1.9,2.9l0,0c0.9,0,1.8-0.3,2.5-0.9s1.3-1.3,1.7-2.2l0,0h1v8.5h-1c-0.4-1.2-0.9-2.1-1.6-2.6s-1.6-0.7-2.6-0.7l0,0
	c-1.3,0-1.9,1-1.9,2.9l0,0v2.6c0,1.2,0.1,2.1,0.4,2.6C395.9,269,396.4,269.3,397.1,269.3z M387.7,250.8v18.5h1.4v-18.5H387.7z
	 M427,250.8L427,250.8c-0.8,0-1.4,0.3-1.8,0.9s-0.7,1.3-0.7,2.3l0,0v1.6c0,1.9,0.6,2.9,1.9,2.9l0,0c1,0,2.1-0.4,3.3-1.3
	c1.2-0.8,1.9-1.8,2.3-3l0,0h1v10.4h-1c-0.4-1.2-1.1-2.1-2.2-2.8c-1.1-0.7-2.2-1.1-3.3-1.1l0,0c-1.3,0-1.9,1-1.9,2.9l0,0v2.6
	c0,2.2,0.6,3.3,1.9,3.3l0,0h2.1c4,0,7-1.9,8.9-5.6l0,0h0.8v7.3h-28.2v-1.7h2.9c1.6,0,2.4-1.2,2.4-3.5l0,0v-11.6
	c0-0.9-0.2-1.8-0.7-2.5s-1.1-1-1.7-1l0,0h-2.9v-1.7h28.2v7.8h-0.8c-0.9-1.7-2.2-3.2-3.9-4.4C431.8,251.4,429.6,250.8,427,250.8z
	 M417,250.8v18.5h1.4v-18.5H417z"/>
</svg>
