<?xml version="1.0" encoding="utf-8"?>
<!-- Generator: Adobe Illustrator 26.0.3, SVG Export Plug-In . SVG Version: 6.00 Build 0)  -->
<svg version="1.1" id="Layer_1" xmlns="http://www.w3.org/2000/svg" xmlns:xlink="http://www.w3.org/1999/xlink" x="0px" y="0px"
	 viewBox="0 0 32 32" style="enable-background:new 0 0 32 32;" xml:space="preserve">
<style type="text/css">
	.st0{fill:none;}
	.st1{fill-rule:evenodd;clip-rule:evenodd;fill:#2F2822;}
</style>
<g id="Layer_2_00000176742750147682235490000018426840380572085903_">
	<rect class="st0" width="32" height="32"/>
	<g transform="matrix(4.352083206176758, 0, 0, 4.352083206176758, 45.09654235839844, -13.320955276489258)">
		<path class="st1" d="M-8.4,6.5L-8,6.9l0.4,0.4v0.6l-0.8,0.6h-1L-9,8.3l0.6-1.2V6.5z M-6.2,7.3h0.4l1,0.4L-5,8.3h-0.8l0.2-0.2
			L-6.2,7.3z M-10,5.7l0.4-0.2V5.3l0.8-0.6v0.2H-8l0.6-0.2l0.8,0.2C-5.8,4.7-5.2,4.7-5,4.7c0.2,0,0.6,0.4,0.8,0.8l1,2.8h-1
			C-4,8.1-4,8.1-4,8.1s-0.8-0.4-1.4-0.8c-0.2-0.2-0.6-0.4-1-0.4v0.8v0.6h-1l0.2-0.2V7.5l-0.2-0.4l-1-0.8h-0.8l-0.6-0.2L-10,5.7z"/>
	</g>
</g>
</svg>
