<?xml version="1.0" encoding="utf-8"?>
<!-- Generator: Adobe Illustrator 26.0.3, SVG Export Plug-In . SVG Version: 6.00 Build 0)  -->
<svg version="1.1" id="Layer_1" xmlns="http://www.w3.org/2000/svg" xmlns:xlink="http://www.w3.org/1999/xlink" x="0px" y="0px"
	 viewBox="0 0 180 180" style="enable-background:new 0 0 180 180;" xml:space="preserve">
<style type="text/css">
	.st0{fill:#E8E5DA;}
	.st1{fill-rule:evenodd;clip-rule:evenodd;fill:#2F2822;}
	.st2{fill:#2F2822;}
</style>
<path class="st0" d="M0,0h180v180H0V0z"/>
<g transform="matrix(4.352083206176758, 0, 0, 4.352083206176758, 45.09654235839844, -13.320955276489258)">
	<path class="st1" d="M1.4,21.5l1.8,1.8L5,25.1v2.7l-3.7,2.7h-4.6l1.8-0.9l2.7-5.5v-2.6H1.4z M11.5,25.1h1.8l4.6,1.8L17,29.6h-3.7
		l0.9-0.9L11.5,25.1z M-5.9,17.8l1.8-0.9V16l3.7-2.7v0.9h3.7L6,13.3l3.7,0.9c3.7-0.9,6.4-0.9,7.3-0.9s2.7,1.8,3.7,3.7l4.6,12.8h-4.6
		c0.9-0.9,0.9-0.9,0.9-0.9s-3.7-1.8-6.4-3.7c-0.9-0.9-2.7-1.8-4.6-1.8V27v2.7H6l0.9-0.9v-2.7L6,24.2l-4.6-3.7h-3.7L-5,19.7
		L-5.9,17.8z"/>
</g>
<path class="st2" d="M163.1,125.6h-51.2l-3.7-2.7l-2.7,1.8L101,121l-4.6,3.7l-6.4-4.6l-6.4,4.6L79,121l-4.6,3.7l-2.7-1.8l-2.7,2.7
	H16.9v0.9h51.2l3.7,1.8l2.7-1.8l4.6,3.7l4.6-3.7L90,132l6.4-4.6l4.6,3.7l4.6-3.7l2.7,1.8l2.7-2.7h52.1L163.1,125.6L163.1,125.6z"/>
<path class="st2" d="M81.8,133.8c0,0.9,0.9,1.8,1.8,1.8s1.8-0.9,1.8-1.8s-0.9-1.8-1.8-1.8S81.8,132.9,81.8,133.8"/>
<path class="st2" d="M94.6,133.8c0,0.9,0.9,1.8,1.8,1.8s2.7-0.9,2.7-1.8c0-0.9-0.9-1.8-1.8-1.8C95.5,132,94.6,132.9,94.6,133.8"/>
</svg>
