<?xml version="1.0" encoding="utf-8"?>
<!-- Generator: Adobe Illustrator 26.0.3, SVG Export Plug-In . SVG Version: 6.00 Build 0)  -->
<svg version="1.1" id="Layer_1" xmlns="http://www.w3.org/2000/svg" xmlns:xlink="http://www.w3.org/1999/xlink" x="0px" y="0px"
	 viewBox="0 0 32 32" style="enable-background:new 0 0 32 32;" xml:space="preserve">
<style type="text/css">
	.st0{fill:none;}
	.st1{fill-rule:evenodd;clip-rule:evenodd;fill:#2F2822;}
	.st2{fill:#2F2822;}
</style>
<rect class="st0" width="32" height="32"/>
<g transform="matrix(4.352083206176758, 0, 0, 4.352083206176758, 45.09654235839844, -13.320955276489258)">
	<path class="st1" d="M-8.6,6.3l0.4,0.4l0.4,0.4v0.6l-0.8,0.6h-1l0.4-0.2l0.6-1.2V6.3z M-6.4,7.1H-6l1,0.4l-0.2,0.6H-6l0.2-0.2
		L-6.4,7.1z M-10.2,5.5l0.4-0.2V5.1L-9,4.5v0.2h0.8l0.6-0.2l0.8,0.2C-6,4.5-5.4,4.5-5.2,4.5c0.2,0,0.6,0.4,0.8,0.8l1,2.8h-1
		c0.2-0.2,0.2-0.2,0.2-0.2S-5,7.5-5.6,7.1c-0.2-0.2-0.6-0.4-1-0.4v0.8v0.6h-1l0.2-0.2V7.3l-0.2-0.4l-1-0.8h-0.8L-10,5.9L-10.2,5.5z"
		/>
</g>
<path class="st2" d="M32,24.2H20.8L20,23.6L19.4,24l-1-0.8l-1,0.8L16,23l-1.4,1l-1-0.8l-1,0.8L12,23.6l-0.6,0.6H0v0.2h11.2l0.8,0.4
	l0.6-0.4l1,0.8l1-0.8l1.4,1.2l1.4-1l1,0.8l1-0.8L20,25l0.6-0.6H32V24.2z"/>
<path class="st2" d="M14.2,26c0,0.2,0.2,0.4,0.4,0.4S15,26.2,15,26s-0.2-0.4-0.4-0.4S14.2,25.8,14.2,26"/>
<path class="st2" d="M17,26c0,0.2,0.2,0.4,0.4,0.4S18,26.2,18,26s-0.2-0.4-0.4-0.4C17.2,25.6,17,25.8,17,26"/>
</svg>
