<?xml version="1.0" encoding="UTF-8" standalone="no"?>
<svg
   xmlns:dc="http://purl.org/dc/elements/1.1/"
   xmlns:cc="http://creativecommons.org/ns#"
   xmlns:rdf="http://www.w3.org/1999/02/22-rdf-syntax-ns#"
   xmlns:svg="http://www.w3.org/2000/svg"
   xmlns="http://www.w3.org/2000/svg"
   xmlns:sodipodi="http://sodipodi.sourceforge.net/DTD/sodipodi-0.dtd"
   xmlns:inkscape="http://www.inkscape.org/namespaces/inkscape"
   width="150.0px"
   height="150.0px"
   viewBox="0 0 150.0 150.0"
   version="1.1"
   id="SVGRoot"
   sodipodi:docname="logo.svg"
   inkscape:export-filename="C:\Users\adrea\Desktop\Logo.png"
   inkscape:export-xdpi="150"
   inkscape:export-ydpi="150"
   inkscape:version="1.0.1 (3bc2e813f5, 2020-09-07)">
  <defs
     id="defs316">
    <inkscape:path-effect
       effect="bspline"
       id="path-effect1226"
       is_visible="true"
       lpeversion="1"
       weight="33.333333"
       steps="2"
       helper_size="0"
       apply_no_weight="true"
       apply_with_weight="true"
       only_selected="false" />
  </defs>
  <sodipodi:namedview
     id="base"
     pagecolor="#ffffff"
     bordercolor="#666666"
     borderopacity="1.0"
     inkscape:pageopacity="0.0"
     inkscape:pageshadow="2"
     inkscape:zoom="3.0043662"
     inkscape:cx="71.298891"
     inkscape:cy="87.602881"
     inkscape:document-units="px"
     inkscape:current-layer="layer1"
     inkscape:document-rotation="0"
     showgrid="true"
     inkscape:window-width="1600"
     inkscape:window-height="847"
     inkscape:window-x="1358"
     inkscape:window-y="-8"
     inkscape:window-maximized="1"
     inkscape:snap-nodes="false"
     inkscape:snap-others="false"
     showguides="false">
    <inkscape:grid
       type="xygrid"
       id="grid325" />
  </sodipodi:namedview>
  <metadata
     id="metadata319">
    <rdf:RDF>
      <cc:Work
         rdf:about="">
        <dc:format>image/svg+xml</dc:format>
        <dc:type
           rdf:resource="http://purl.org/dc/dcmitype/StillImage" />
        <dc:title></dc:title>
      </cc:Work>
    </rdf:RDF>
  </metadata>
  <g
     inkscape:label="Layer 1"
     inkscape:groupmode="layer"
     id="layer1">
    <path
       style="display:inline;opacity:0.99;fill:#000000;stroke-width:0.999997;stroke-linecap:round;stroke-linejoin:round;paint-order:stroke markers fill"
       id="path12"
       d="m 15.619093,139.91169 c 1.451866,-0.0416 1.22432,-0.0182 3.121742,-0.1959 5.578319,-0.5226 11.140226,-1.22575 16.713265,-1.80121 3.222576,-0.33275 6.447915,-0.63687 9.671871,-0.95535 17.872798,-1.65682 35.84732,-2.36924 53.78417,-1.51483 12.751509,0.6074 15.632099,1.16042 28.131789,2.63051 4.97047,-0.97343 4.52218,-3.37189 -0.4483,-2.39847 v 0 c -4.62176,-0.65622 -9.22523,-1.4655 -13.86526,-1.96869 -22.741322,-2.46619 -45.71195,-1.49041 -68.379036,1.25014 -3.190043,0.43163 -6.383879,0.8348 -9.570117,1.2949 -6.462316,0.9331 -12.903325,2.04397 -19.315147,3.28762 -0.769475,0.33661 -0.614457,0.70791 0.155023,0.37128 z" />
    <path
       style="display:inline;opacity:0.99;fill:#000000;stroke-width:0.999997;stroke-linecap:round;stroke-linejoin:round;paint-order:stroke markers fill"
       id="path61"
       d="m 114.17125,131.24353 c 3.37281,-2.38715 6.1125,-5.72823 8.37162,-9.20088 0.99472,-1.52904 1.86367,-3.14003 2.79553,-4.71003 0.93061,-2.00302 1.97078,-3.95648 2.7919,-6.00904 4.39732,-10.992 6.2742,-22.914199 7.43084,-34.666447 0.30986,-3.14837 0.47781,-6.309667 0.71673,-9.464499 0.092,-2.915156 0.18392,-5.830314 0.27584,-8.745481 0.12848,-3.124649 -1.31049,-3.186641 -1.43895,-0.06203 v 0 c -0.24961,2.89574 -0.4992,5.791468 -0.7488,8.687201 -1.41633,14.741476 -2.65415,29.923258 -7.87013,43.879546 -0.75932,2.03171 -1.72801,3.97485 -2.59198,5.96228 -0.86489,1.56225 -1.67026,3.16061 -2.59462,4.68674 -2.08842,3.44799 -4.62723,6.63989 -7.6079,9.31747 -0.6738,1.02038 -0.2039,1.34551 0.46992,0.32514 z" />
    <path
       style="display:inline;opacity:0.99;fill:#000000;stroke-width:0.999997;stroke-linecap:round;stroke-linejoin:round;paint-order:stroke markers fill"
       id="path155"
       d="m 19.16173,56.344912 c -1.051221,4.606673 -0.778759,9.44321 -0.109313,14.084581 0.227111,1.574558 0.560116,3.131202 0.840179,4.696797 0.417304,3.145766 1.866003,2.944398 1.448696,-0.201359 v 0 C 20.46488,68.801968 19.535215,62.639672 19.667386,56.431922 19.847699,55.33391 19.342041,55.2469 19.161731,56.344905 Z" />
    <path
       style="display:inline;opacity:0.99;fill:#000000;stroke-width:0.999997;stroke-linecap:round;stroke-linejoin:round;paint-order:stroke markers fill"
       id="path175"
       d="m 16.954346,77.928328 c -0.292198,-0.07124 -0.578989,-0.172183 -0.8766,-0.213832 -1.461222,-0.204503 -2.89588,0.622316 -3.795254,1.753992 -0.491393,0.618328 -0.8451,1.339029 -1.267651,2.008538 -0.397346,1.05702 -0.896704,2.079576 -1.1920374,3.171054 -0.8002709,2.957566 -1.2890041,6.779127 -1.221745,9.81525 0.088755,4.006561 0.5523264,7.41272 2.6143764,10.92026 0.884239,1.50409 2.250818,2.64912 3.376227,3.97368 1.447509,0.75566 2.895023,1.51134 4.342533,2.26699 2.194124,1.92498 3.080615,0.86621 0.886499,-1.05874 v 0 c -1.210923,-0.77001 -2.421841,-1.54001 -3.632758,-2.31 -0.955917,-1.21598 -2.115276,-2.29044 -2.867745,-3.64795 -1.798024,-3.24371 -2.264671,-6.443285 -2.449363,-10.107732 -0.128126,-2.542019 0.157554,-6.814397 0.645586,-9.399535 0.193144,-1.023071 0.570497,-2.000515 0.855752,-3.000779 0.674347,-1.293824 0.828453,-1.98534 1.896394,-2.860727 0.435926,-0.357327 0.964882,-0.490681 1.498958,-0.564081 0.190492,-0.02625 0.385661,-8.93e-4 0.575896,-0.02909 0.02771,-0.0044 0.0373,-0.04282 0.05594,-0.06419 1.353566,1.205153 1.908569,0.552002 0.555002,-0.653161 z" />
    <path
       style="display:inline;opacity:0.99;fill:#000000;stroke-width:0.999997;stroke-linecap:round;stroke-linejoin:round;paint-order:stroke markers fill"
       id="path191"
       d="m 25.026202,113.666 c 0.03592,0.18793 0.05878,0.37898 0.107813,0.56379 0.722132,2.72198 2.194021,5.921 3.601669,8.29041 0.659109,1.10941 1.421893,2.15073 2.132836,3.2261 3.586926,4.01708 1.667701,2.17547 5.745145,5.53847 1.83439,1.90569 2.712007,1.02054 0.87762,-0.88516 v 0 c -3.670525,-3.50103 -1.897366,-1.65695 -5.311304,-5.54049 -0.721297,-1.02091 -1.479566,-2.01548 -2.163879,-3.06273 -1.716278,-2.62652 -3.100997,-5.46064 -4.525665,-8.25695 -0.262257,-1.00806 -0.726492,-0.88151 -0.464233,0.12656 z" />
    <path
       style="display:inline;opacity:0.99;fill:#000000;stroke-width:0.999997;stroke-linecap:round;stroke-linejoin:round;paint-order:stroke markers fill"
       id="path201"
       d="m 24.836245,8.692147 c -0.868319,2.044826 -1.825657,4.114766 -2.292515,6.306214 -0.114775,0.538747 -0.151296,1.091888 -0.226941,1.637838 0.151141,1.273067 0.06897,1.891352 0.822176,2.991207 0.913802,1.334349 2.265074,2.135525 3.636708,2.893933 1.874361,1.036366 5.814152,2.751165 7.611786,3.559478 6.881927,3.052472 13.579428,6.509761 20.329372,9.849993 1.650311,1.55796 2.367787,0.761605 0.717476,-0.796353 v 0 C 53.850804,34.227237 52.284165,33.288431 50.683789,32.412775 45.697863,29.684647 40.566048,27.245166 35.329361,25.065599 34.010579,24.52497 29.119183,22.54735 27.573632,21.820166 c -1.686893,-0.79369 -3.645928,-1.664465 -4.25282,-3.650911 -0.136929,-0.448168 -0.125187,-0.93036 -0.187783,-1.395545 0.07458,-0.517596 0.11698,-1.041132 0.223733,-1.552791 0.453464,-2.173431 1.339623,-4.226493 1.978945,-6.3427517 C 25.72121,7.7936158 25.221749,7.6075967 24.836245,8.692147 Z" />
    <path
       style="display:inline;opacity:0.99;fill:#000000;stroke-width:0.999997;stroke-linecap:round;stroke-linejoin:round;paint-order:stroke markers fill"
       id="path209"
       d="m 82.124649,8.3423713 c -1.141935,1.629739 -1.428476,3.7072957 -1.581602,5.6574537 0.06692,0.845052 0.01006,1.304945 0.430587,2.064943 1.020087,1.843126 3.600376,2.601613 5.372936,3.310132 7.709073,2.602452 14.41607,7.331391 21.06655,11.960457 1.36139,1.277672 1.94979,0.62074 0.58838,-0.656943 v 0 c -1.09024,-0.911233 -2.14057,-1.874938 -3.27073,-2.733716 -5.379676,-4.087943 -11.40259,-7.302473 -17.813574,-9.30171 -1.518848,-0.522411 -4.346425,-1.234152 -5.287119,-2.761139 -0.402175,-0.652842 -0.338883,-1.107387 -0.392929,-1.852194 0.156186,-1.882764 0.394185,-3.818309 1.247689,-5.5219026 0.342711,-0.7821297 -0.01739,-0.9475047 -0.360188,-0.1653811 z" />
    <path
       style="display:inline;opacity:0.99;fill:#000000;stroke-width:0.999997;stroke-linecap:round;stroke-linejoin:round;paint-order:stroke markers fill"
       id="path217"
       d="m 109.31939,26.339646 c 1.61282,0.820401 3.25533,1.588684 4.7249,2.670698 0.49873,0.367222 0.96127,0.783411 1.44189,1.175116 2.55405,2.215611 3.95124,5.348291 5.5258,8.292121 0.56849,0.999109 1.02859,0.72479 0.46013,-0.274305 v 0 c -1.34455,-3.313429 -2.71432,-6.231887 -5.45497,-8.605379 -0.50374,-0.394594 -0.98708,-0.818037 -1.51121,-1.183762 -1.52449,-1.063781 -3.24144,-1.790383 -4.97728,-2.401982 -0.67873,-0.454335 -0.88795,-0.126831 -0.20926,0.327493 z" />
    <path
       style="display:inline;opacity:0.99;fill:#000000;stroke-width:0.999997;stroke-linecap:round;stroke-linejoin:round;paint-order:stroke markers fill"
       id="path221"
       d="m 42.182223,142.44206 c 6.756746,-0.0848 13.484022,-0.87113 20.234369,-1.14645 3.361628,-0.13712 6.72619,-0.18364 10.089288,-0.27546 12.270751,-0.32274 24.547232,-0.004 36.80436,0.60336 3.82716,0.18986 7.65045,0.45457 11.47567,0.68186 3.84421,-0.67566 3.53304,-2.53064 -0.31113,-1.85497 v 0 c -3.85488,-0.33116 -7.70517,-0.7234 -11.56458,-0.99344 -12.295936,-0.86042 -24.626306,-1.17734 -36.941619,-0.52038 -3.334467,0.23115 -6.672573,0.41261 -10.003395,0.69346 -3.471863,0.29271 -9.03373,0.95851 -12.705531,1.41098 -1.480092,0.18239 -4.456281,0.553 -6.141929,0.82436 -0.354299,0.057 -0.704263,0.13936 -1.056393,0.20905 -0.761871,0.2625 -0.640981,0.63014 0.12089,0.36763 z" />
    <path
       style="display:inline;opacity:0.99;fill:#000000;stroke-width:0.999997;stroke-linecap:round;stroke-linejoin:round;paint-order:stroke markers fill"
       id="path227"
       d="m 20.638777,50.336873 c 4.334324,-1.389971 8.702799,-2.686875 13.11561,-3.791614 2.147286,-0.537556 4.308198,-1.016415 6.462295,-1.524629 2.616805,-0.492193 5.220564,-1.063587 7.850407,-1.476561 13.441708,-2.110837 27.388589,-2.624201 40.956367,-1.810805 3.615913,0.216774 7.216267,0.650881 10.824396,0.976326 8.671558,1.394369 11.167708,1.524141 19.491108,3.888751 2.79534,0.794131 5.54855,1.743363 8.27986,2.74412 2.37369,0.869728 4.68457,1.909539 7.02685,2.864302 2.58262,0.308194 2.72457,-0.938031 0.14195,-1.246223 v 0 c -2.35621,-1.107758 -4.66138,-2.337178 -7.06863,-3.323265 -9.01271,-3.691926 -18.49007,-5.919419 -28.103021,-7.183953 -3.646909,-0.340732 -7.284764,-0.805997 -10.94074,-1.022189 -7.185052,-0.424893 -14.78911,-0.358397 -21.974495,0.07942 -6.623908,0.403589 -12.706747,1.114051 -19.222043,2.309881 -2.631299,0.482941 -5.228654,1.142884 -7.842979,1.714326 -6.49919,1.792225 -13.078273,3.550371 -19.229163,6.402894 -0.827382,0.504268 -0.595156,0.903506 0.232228,0.399238 z" />
    <path
       style="display:inline;opacity:0.99;fill:#000000;stroke-width:0.999997;stroke-linecap:round;stroke-linejoin:round;paint-order:stroke markers fill"
       id="path263"
       d="m 15.619093,139.91169 c 1.451866,-0.0416 1.22432,-0.0182 3.121742,-0.1959 5.578319,-0.5226 11.140226,-1.22575 16.713265,-1.80121 3.222576,-0.33275 6.447915,-0.63687 9.671871,-0.95535 17.872798,-1.65682 35.84732,-2.36924 53.78417,-1.51483 12.751509,0.6074 15.632099,1.16042 28.131789,2.63051 4.97047,-0.97343 4.52218,-3.37189 -0.4483,-2.39847 v 0 c -4.62176,-0.65622 -9.22523,-1.4655 -13.86526,-1.96869 -22.741322,-2.46619 -45.71195,-1.49041 -68.379036,1.25014 -3.190043,0.43163 -6.383879,0.8348 -9.570117,1.2949 -6.462316,0.9331 -12.903325,2.04397 -19.315147,3.28762 -0.769475,0.33661 -0.614457,0.70791 0.155023,0.37128 z" />
    <path
       style="display:inline;opacity:0.99;fill:#000000;stroke-width:0.999997;stroke-linecap:round;stroke-linejoin:round;paint-order:stroke markers fill"
       id="path265"
       d="m 114.17125,131.24353 c 3.37281,-2.38715 6.1125,-5.72823 8.37162,-9.20088 0.99472,-1.52904 1.86367,-3.14003 2.79553,-4.71003 0.93061,-2.00302 1.97078,-3.95648 2.7919,-6.00904 4.39732,-10.992 6.2742,-22.914199 7.43084,-34.666447 0.30986,-3.14837 0.47781,-6.309667 0.71673,-9.464499 0.092,-2.915156 0.18392,-5.830314 0.27584,-8.745481 0.12848,-3.124649 -1.31049,-3.186641 -1.43895,-0.06203 v 0 c -0.24961,2.89574 -0.4992,5.791468 -0.7488,8.687201 -1.41633,14.741476 -2.65415,29.923258 -7.87013,43.879546 -0.75932,2.03171 -1.72801,3.97485 -2.59198,5.96228 -0.86489,1.56225 -1.67026,3.16061 -2.59462,4.68674 -2.08842,3.44799 -4.62723,6.63989 -7.6079,9.31747 -0.6738,1.02038 -0.2039,1.34551 0.46992,0.32514 z" />
    <path
       style="display:inline;opacity:0.99;fill:#000000;stroke-width:0.999997;stroke-linecap:round;stroke-linejoin:round;paint-order:stroke markers fill"
       id="path267"
       d="m 19.16173,56.344912 c -1.051221,4.606673 -0.778759,9.44321 -0.109313,14.084581 0.227111,1.574558 0.560116,3.131202 0.840179,4.696797 0.417304,3.145766 1.866003,2.944398 1.448696,-0.201359 v 0 C 20.46488,68.801968 19.535215,62.639672 19.667386,56.431922 19.847699,55.33391 19.342041,55.2469 19.161731,56.344905 Z" />
    <path
       style="display:inline;opacity:0.99;fill:#000000;stroke-width:0.999997;stroke-linecap:round;stroke-linejoin:round;paint-order:stroke markers fill"
       id="path269"
       d="m 16.954346,77.928328 c -0.292198,-0.07124 -0.578989,-0.172183 -0.8766,-0.213832 -1.461222,-0.204503 -2.89588,0.622316 -3.795254,1.753992 -0.491393,0.618328 -0.8451,1.339029 -1.267651,2.008538 -0.397346,1.05702 -0.896704,2.079576 -1.1920374,3.171054 -0.8002709,2.957566 -1.2890041,6.779127 -1.221745,9.81525 0.088755,4.006561 0.5523264,7.41272 2.6143764,10.92026 0.884239,1.50409 2.250818,2.64912 3.376227,3.97368 1.447509,0.75566 2.895023,1.51134 4.342533,2.26699 2.194124,1.92498 3.080615,0.86621 0.886499,-1.05874 v 0 c -1.210923,-0.77001 -2.421841,-1.54001 -3.632758,-2.31 -0.955917,-1.21598 -2.115276,-2.29044 -2.867745,-3.64795 -1.798024,-3.24371 -2.264671,-6.443285 -2.449363,-10.107732 -0.128126,-2.542019 0.157554,-6.814397 0.645586,-9.399535 0.193144,-1.023071 0.570497,-2.000515 0.855752,-3.000779 0.674347,-1.293824 0.828453,-1.98534 1.896394,-2.860727 0.435926,-0.357327 0.964882,-0.490681 1.498958,-0.564081 0.190492,-0.02625 0.385661,-8.93e-4 0.575896,-0.02909 0.02771,-0.0044 0.0373,-0.04282 0.05594,-0.06419 1.353566,1.205153 1.908569,0.552002 0.555002,-0.653161 z" />
    <path
       style="display:inline;opacity:0.99;fill:#000000;stroke-width:0.999997;stroke-linecap:round;stroke-linejoin:round;paint-order:stroke markers fill"
       id="path271"
       d="m 25.026202,113.666 c 0.03592,0.18793 0.05878,0.37898 0.107813,0.56379 0.722132,2.72198 2.194021,5.921 3.601669,8.29041 0.659109,1.10941 1.421893,2.15073 2.132836,3.2261 3.586926,4.01708 1.667701,2.17547 5.745145,5.53847 1.83439,1.90569 2.712007,1.02054 0.87762,-0.88516 v 0 c -3.670525,-3.50103 -1.897366,-1.65695 -5.311304,-5.54049 -0.721297,-1.02091 -1.479566,-2.01548 -2.163879,-3.06273 -1.716278,-2.62652 -3.100997,-5.46064 -4.525665,-8.25695 -0.262257,-1.00806 -0.726492,-0.88151 -0.464233,0.12656 z" />
    <path
       style="display:inline;opacity:0.99;fill:#000000;stroke-width:0.999997;stroke-linecap:round;stroke-linejoin:round;paint-order:stroke markers fill"
       id="path273"
       d="m 24.836245,8.692147 c -0.868319,2.044826 -1.825657,4.114766 -2.292515,6.306214 -0.114775,0.538747 -0.151296,1.091888 -0.226941,1.637838 0.151141,1.273067 0.06897,1.891352 0.822176,2.991207 0.913802,1.334349 2.265074,2.135525 3.636708,2.893933 1.874361,1.036366 5.814152,2.751165 7.611786,3.559478 6.881927,3.052472 13.579428,6.509761 20.329372,9.849993 1.650311,1.55796 2.367787,0.761605 0.717476,-0.796353 v 0 C 53.850804,34.227237 52.284165,33.288431 50.683789,32.412775 45.697863,29.684647 40.566048,27.245166 35.329361,25.065599 34.010579,24.52497 29.119183,22.54735 27.573632,21.820166 c -1.686893,-0.79369 -3.645928,-1.664465 -4.25282,-3.650911 -0.136929,-0.448168 -0.125187,-0.93036 -0.187783,-1.395545 0.07458,-0.517596 0.11698,-1.041132 0.223733,-1.552791 0.453464,-2.173431 1.339623,-4.226493 1.978945,-6.3427517 C 25.72121,7.7936158 25.221749,7.6075967 24.836245,8.692147 Z" />
    <path
       style="display:inline;opacity:0.99;fill:#000000;stroke-width:0.999997;stroke-linecap:round;stroke-linejoin:round;paint-order:stroke markers fill"
       id="path275"
       d="m 82.124649,8.3423713 c -1.141935,1.629739 -1.428476,3.7072957 -1.581602,5.6574537 0.06692,0.845052 0.01006,1.304945 0.430587,2.064943 1.020087,1.843126 3.600376,2.601613 5.372936,3.310132 7.709073,2.602452 14.41607,7.331391 21.06655,11.960457 1.36139,1.277672 1.94979,0.62074 0.58838,-0.656943 v 0 c -1.09024,-0.911233 -2.14057,-1.874938 -3.27073,-2.733716 -5.379676,-4.087943 -11.40259,-7.302473 -17.813574,-9.30171 -1.518848,-0.522411 -4.346425,-1.234152 -5.287119,-2.761139 -0.402175,-0.652842 -0.338883,-1.107387 -0.392929,-1.852194 0.156186,-1.882764 0.394185,-3.818309 1.247689,-5.5219026 0.342711,-0.7821297 -0.01739,-0.9475047 -0.360188,-0.1653811 z" />
    <path
       style="display:inline;opacity:0.99;fill:#000000;stroke-width:0.999997;stroke-linecap:round;stroke-linejoin:round;paint-order:stroke markers fill"
       id="path277"
       d="m 109.31939,26.339646 c 1.61282,0.820401 3.25533,1.588684 4.7249,2.670698 0.49873,0.367222 0.96127,0.783411 1.44189,1.175116 2.55405,2.215611 3.95124,5.348291 5.5258,8.292121 0.56849,0.999109 1.02859,0.72479 0.46013,-0.274305 v 0 c -1.34455,-3.313429 -2.71432,-6.231887 -5.45497,-8.605379 -0.50374,-0.394594 -0.98708,-0.818037 -1.51121,-1.183762 -1.52449,-1.063781 -3.24144,-1.790383 -4.97728,-2.401982 -0.67873,-0.454335 -0.88795,-0.126831 -0.20926,0.327493 z" />
    <path
       style="display:inline;opacity:0.99;fill:#000000;stroke-width:0.999997;stroke-linecap:round;stroke-linejoin:round;paint-order:stroke markers fill"
       id="path279"
       d="m 42.182223,142.44206 c 6.756746,-0.0848 13.484022,-0.87113 20.234369,-1.14645 3.361628,-0.13712 6.72619,-0.18364 10.089288,-0.27546 12.270751,-0.32274 24.547232,-0.004 36.80436,0.60336 3.82716,0.18986 7.65045,0.45457 11.47567,0.68186 3.84421,-0.67566 3.53304,-2.53064 -0.31113,-1.85497 v 0 c -3.85488,-0.33116 -7.70517,-0.7234 -11.56458,-0.99344 -12.295936,-0.86042 -24.626306,-1.17734 -36.941619,-0.52038 -3.334467,0.23115 -6.672573,0.41261 -10.003395,0.69346 -3.471863,0.29271 -9.03373,0.95851 -12.705531,1.41098 -1.480092,0.18239 -4.456281,0.553 -6.141929,0.82436 -0.354299,0.057 -0.704263,0.13936 -1.056393,0.20905 -0.761871,0.2625 -0.640981,0.63014 0.12089,0.36763 z" />
    <path
       style="opacity:0.99;fill:#000000;stroke-linecap:round;stroke-linejoin:round;paint-order:stroke markers fill"
       id="path382"
       d="m 129.9287,56.667816 c -0.004,2.410959 0.16833,4.75071 0.0197,7.172067 -0.0705,1.14901 -0.18918,2.294562 -0.28377,3.441843 -1.12252,9.35736 -3.0059,18.622167 -5.3257,27.753071 -0.50686,1.995033 -1.05932,3.978203 -1.58898,5.967303 -0.54951,2.40845 0.58584,2.66749 1.13535,0.25904 v 0 c 0.62686,-1.979263 1.31727,-3.939516 1.88058,-5.937796 1.0526,-3.733912 2.07987,-8.50071 2.79552,-12.317305 0.69321,-3.696882 1.27944,-7.467707 1.69965,-11.208093 0.16488,-1.467595 0.26261,-2.941957 0.39391,-4.412936 0.0416,-1.163763 0.11427,-2.326831 0.12473,-3.491289 0.0217,-2.413468 -0.20022,-4.830754 -0.55323,-7.215925 0.0212,-0.631553 -0.27655,-0.641532 -0.29772,-0.01 z" />
    <path
       style="opacity:0.99;fill:#000000;stroke-linecap:round;stroke-linejoin:round;paint-order:stroke markers fill"
       id="path388"
       d="m 126.44001,60.252093 c -0.35013,3.968329 -0.67903,7.940023 -0.94405,11.915412 -0.15486,1.453125 0.53015,1.52613 0.68501,0.073 v 0 c 0.13858,-1.177728 0.30834,-2.352203 0.41572,-3.533184 0.25414,-2.794992 0.32013,-5.625935 0.17048,-8.428381 0.057,-0.694023 -0.2702,-0.720874 -0.32716,-0.02685 z" />
    <path
       style="opacity:0.99;fill:#ffffff;fill-opacity:1;stroke:none;stroke-width:1;stroke-linecap:round;stroke-linejoin:round;stroke-miterlimit:4;stroke-dasharray:none;stroke-opacity:1;paint-order:stroke markers fill"
       id="path1228"
       d="m 101.3826,-1.7374739 c 0.58309,1.88365918 0.82227,3.8483318 1.04084,5.8008015 0.24913,2.8147421 0.31624,5.6410722 0.46977,8.4618924 0.21348,2.291761 0.11247,4.569281 -0.21494,6.841308 -0.39662,2.267691 -0.83275,4.525931 -1.08337,6.815609 -0.14319,1.618141 -0.13142,3.243747 -0.1093,4.866296 0.008,0.422639 10e-4,0.23384 0.018,0.566545 -0.0178,0.128628 0.0428,0.137016 0.0606,0.0084 v 0 c 0.13135,-0.326067 0.0777,-0.138622 0.1288,-0.570529 0.0234,-1.615186 -0.007,-3.233712 0.14552,-4.844173 0.25799,-2.285807 0.69779,-4.540884 1.08011,-6.808032 0.32367,-2.280908 0.42685,-4.568211 0.21289,-6.868254 -0.15244,-2.8239798 -0.21526,-5.6540755 -0.48019,-8.4706752 -0.23309,-1.9629703 -0.47999,-3.95069365 -1.14256,-5.8237596 -0.0521,-0.2677667 -0.17838,-0.2431838 -0.12623,0.024583 z" />
    <path
       style="opacity:0.99;fill:#ffffff;fill-opacity:1;stroke:none;stroke-width:1;stroke-linecap:round;stroke-linejoin:round;stroke-miterlimit:4;stroke-dasharray:none;stroke-opacity:1;paint-order:stroke markers fill"
       id="path1230"
       d="m 101.94821,-1.5746269 c -0.0764,0.98805849 -0.14529,1.97674036 -0.20835,2.9657354 -0.0715,0.9558747 -0.0562,1.9130775 -5.2e-4,2.8689316 0.0822,1.3308342 0.23657,2.6555259 0.34632,3.9841313 0.13511,1.6201746 0.16241,3.2463176 0.18275,4.8711356 0.0172,1.402397 -0.0268,2.804144 -0.0904,4.204846 -0.001,0.499116 -0.005,0.255602 0.0114,0.730562 -0.0127,0.06994 0.0202,0.07593 0.033,0.006 v 0 c 0.10356,-0.45763 0.0637,-0.220527 0.11533,-0.712029 0.0858,-1.400747 0.1331,-2.803827 0.11128,-4.207424 -0.025,-1.628208 -0.0602,-3.2573866 -0.20045,-4.8805739 -0.11633,-1.3286609 -0.27369,-2.6533676 -0.37073,-3.9837099 -0.0611,-0.9516746 -0.0772,-1.9042937 -8.1e-4,-2.8561337 0.0616,-0.99070703 0.13051,-1.98124465 0.16244,-2.9734964 0.0381,-0.1934732 -0.0531,-0.2114462 -0.0912,-0.017973 z" />
  </g>
</svg>
